# xmcd
#
# Track frame offsets: 
#        300
#        21394
#        56235
#        85488
#        124695
#        146352
#        169853
#        206044
#        230941
#
# Disc length: 3395 seconds
#
# Revision: 2
# Processed by: cddbd v1.5.2PL0 Copyright (c) Steve Scherf et al.
# Submitted via: ExactAudioCopy v1.0b1
#
DISCID=890d3f09
DTITLE=Jimmy Dawkins - Feel The Blues
DYEAR=2005
DGENRE=Chicago Blues
TTITLE0=(If You Got To) Love Somebody
TTITLE1=Highway Man
TTITLE2=So Good To Me
TTITLE3=Last Days
TTITLE4=Feel The Blues
TTITLE5=Christmas Time Blues
TTITLE6=Have A Little Mercy
TTITLE7=We Got To Go
TTITLE8=So Good To Be Me (alternate take)
EXTD=
EXTT0=
EXTT1=
EXTT2=
EXTT3=
EXTT4=
EXTT5=
EXTT6=
EXTT7=
EXTT8=
PLAYORDER=
